<?xml version="1.0" standalone="no"?>
<!DOCTYPE svg PUBLIC "-//W3C//DTD SVG 20010904//EN"
 "http://www.w3.org/TR/2001/REC-SVG-20010904/DTD/svg10.dtd">
<svg version="1.0" xmlns="http://www.w3.org/2000/svg"
 width="926.000000pt" height="467.000000pt" viewBox="0 0 926.000000 467.000000"
 preserveAspectRatio="xMidYMid meet">
<metadata>
Created by potrace 1.16, written by Peter Selinger 2001-2019
</metadata>
<g transform="translate(0.000000,467.000000) scale(0.100000,-0.100000)"
fill="#000000" stroke="none">
<path d="M1165 3510 l-1160 -1160 1175 -1175 1175 -1175 2385 3 c2592 4 2429
0 2695 57 248 54 559 185 775 329 561 372 923 940 1027 1611 24 160 24 510 0
670 -118 766 -590 1415 -1272 1750 -239 117 -431 178 -702 222 l-138 22 -2400
3 -2400 3 -1160 -1160z m6125 1067 c245 -46 417 -100 618 -197 153 -74 260
-138 382 -230 477 -357 795 -890 887 -1490 24 -159 24 -491 0 -650 -40 -256
-109 -472 -222 -695 -349 -689 -1004 -1145 -1770 -1234 -60 -7 -873 -11 -2450
-11 l-2360 0 -1137 1137 c-626 626 -1138 1142 -1138 1148 0 5 503 513 1118
1128 l1117 1117 2430 -3 c2273 -2 2436 -3 2525 -20z"/>
</g>
</svg>
