<?xml version="1.0" standalone="no"?>
<!DOCTYPE svg PUBLIC "-//W3C//DTD SVG 20010904//EN"
 "http://www.w3.org/TR/2001/REC-SVG-20010904/DTD/svg10.dtd">
<svg version="1.0" xmlns="http://www.w3.org/2000/svg"
 width="1531.000000pt" height="390.000000pt" viewBox="0 0 1531.000000 390.000000"
 preserveAspectRatio="xMidYMid meet">
<metadata>
Created by potrace 1.16, written by Peter Selinger 2001-2019
</metadata>
<g transform="translate(0.000000,390.000000) scale(0.100000,-0.100000)"
fill="#000000" stroke="none">
<path d="M1699 3885 c-335 -46 -637 -171 -909 -376 -514 -388 -804 -998 -777
-1634 22 -501 220 -950 574 -1303 328 -326 742 -519 1208 -562 152 -14 11578
-14 11730 0 466 43 880 236 1208 562 536 534 714 1306 466 2025 -123 357 -359
678 -669 912 -276 209 -575 331 -918 376 -99 13 -831 15 -5965 14 -4763 -1
-5870 -3 -5948 -14z m11871 -95 c337 -42 640 -164 905 -363 112 -85 308 -285
387 -397 405 -572 459 -1304 142 -1920 -182 -353 -463 -632 -819 -810 -217
-109 -423 -167 -670 -190 -152 -14 -11558 -14 -11710 0 -247 23 -453 81 -670
190 -732 367 -1136 1165 -996 1970 66 378 233 700 506 976 174 175 315 277
521 376 169 81 379 142 574 167 100 13 11727 13 11830 1z"/>
</g>
</svg>
