<?xml version="1.0" standalone="no"?>
<!DOCTYPE svg PUBLIC "-//W3C//DTD SVG 20010904//EN"
 "http://www.w3.org/TR/2001/REC-SVG-20010904/DTD/svg10.dtd">
<svg version="1.0" xmlns="http://www.w3.org/2000/svg"
 width="1215.000000pt" height="608.000000pt" viewBox="0 0 1215.000000 608.000000"
 preserveAspectRatio="xMidYMid meet">
<metadata>
Created by potrace 1.16, written by Peter Selinger 2001-2019
</metadata>
<g transform="translate(0.000000,608.000000) scale(0.100000,-0.100000)"
fill="#000000" stroke="none">
<path d="M1517 3045 c-834 -1669 -1517 -3037 -1517 -3040 0 -3 2044 -5 4543
-5 l4542 0 1518 3035 c834 1669 1517 3037 1517 3040 0 3 -2044 5 -4543 5
l-4542 0 -1518 -3035z m10473 2950 c0 -3 -665 -1335 -1477 -2960 l-1478 -2955
-4452 0 c-2449 0 -4453 2 -4453 5 0 3 665 1335 1477 2960 l1478 2955 4452 0
c2449 0 4453 -2 4453 -5z"/>
</g>
</svg>
