<?xml version="1.0" standalone="no"?>
<!DOCTYPE svg PUBLIC "-//W3C//DTD SVG 20010904//EN"
 "http://www.w3.org/TR/2001/REC-SVG-20010904/DTD/svg10.dtd">
<svg version="1.0" xmlns="http://www.w3.org/2000/svg"
 width="1216.000000pt" height="610.000000pt" viewBox="0 0 1216.000000 610.000000"
 preserveAspectRatio="xMidYMid meet">

<g transform="translate(0.000000,610.000000) scale(0.100000,-0.100000)"
fill="#000000" stroke="none">
<path d="M3033 4572 c-1668 -834 -3033 -1519 -3033 -1522 0 -3 1368 -689 3040
-1525 l3040 -1520 3040 1520 c1672 836 3040 1522 3040 1525 0 8 -6068 3040
-6083 3039 -6 0 -1377 -683 -3044 -1517z m6002 -44 c1620 -810 2945 -1475
2945 -1478 0 -3 -1327 -669 -2950 -1480 l-2950 -1475 -2950 1475 c-1622 811
-2950 1477 -2950 1480 0 7 5882 2949 5897 2949 7 1 1338 -662 2958 -1471z"/>
</g>
</svg>
